<?xml version="1.0" encoding="UTF-8"?>
<svg id="Layer_1" data-name="Layer 1" xmlns="http://www.w3.org/2000/svg" viewBox="0 0 500 500">
  <defs>
    <style>
      .cls-1, .cls-2 {
        stroke-width: 0px;
      }

      .cls-2 {
        fill: #fff;
      }
    </style>
  </defs>
  <g>
    <path class="cls-2" d="m250,497.5c-66.11,0-128.26-25.74-175.01-72.49C28.24,378.26,2.5,316.11,2.5,250S28.24,121.74,74.99,74.99,183.89,2.5,250,2.5s128.26,25.74,175.01,72.49c46.75,46.75,72.49,108.9,72.49,175.01s-25.74,128.26-72.49,175.01c-46.75,46.75-108.9,72.49-175.01,72.49Z"/>
    <path class="cls-1" d="m250,5c33.08,0,65.16,6.48,95.36,19.25,29.17,12.34,55.38,30.01,77.88,52.51,22.5,22.5,40.17,48.7,52.51,77.88,12.77,30.2,19.25,62.29,19.25,95.36s-6.48,65.16-19.25,95.36c-12.34,29.17-30.01,55.38-52.51,77.88-22.5,22.5-48.7,40.17-77.88,52.51-30.2,12.77-62.29,19.25-95.36,19.25s-65.16-6.48-95.36-19.25c-29.17-12.34-55.38-30.01-77.88-52.51s-40.17-48.7-52.51-77.88c-12.77-30.2-19.25-62.29-19.25-95.36s6.48-65.16,19.25-95.36c12.34-29.17,30.01-55.38,52.51-77.88,22.5-22.5,48.7-40.17,77.88-52.51,30.2-12.77,62.29-19.25,95.36-19.25m0-5C111.93,0,0,111.93,0,250s111.93,250,250,250,250-111.93,250-250S388.07,0,250,0h0Z"/>
  </g>
  <g>
    <path class="cls-1" d="m88.15,360.71l-53.18-209.63h28.61l24.88,106.06c6.22,26.12,11.82,52.25,15.55,72.47h.62c3.42-20.84,9.95-45.72,17.11-72.78l27.99-105.75h28.3l25.5,106.37c5.91,24.88,11.51,49.76,14.62,71.85h.62c4.35-23.02,10.26-46.34,16.79-72.47l27.68-105.75h27.68l-59.41,209.63h-28.3l-26.44-109.17c-6.53-26.75-10.89-47.28-13.68-68.42h-.62c-3.73,20.84-8.4,41.37-16.17,68.42l-29.86,109.17h-28.3Z"/>
    <path class="cls-1" d="m431.82,360.71l-26.75-46.34c-10.89-17.73-17.73-29.24-24.26-41.37h-.62c-5.91,12.13-11.82,23.33-22.7,41.68l-25.19,46.03h-31.1l64.07-106.06-61.58-103.57h31.41l27.68,49.14c7.78,13.68,13.68,24.26,19.28,35.46h.93c5.91-12.44,11.2-22.08,18.97-35.46l28.61-49.14h31.1l-63.76,102.01,65.31,107.61h-31.41Z"/>
  </g>
</svg>